<svg xmlns="http://www.w3.org/2000/svg" xmlns:xlink="http://www.w3.org/1999/xlink" width="500" zoomAndPan="magnify" viewBox="0 0 375 374.999991" height="500" preserveAspectRatio="xMidYMid meet" version="1.0"><defs><clipPath id="6de54ec385"><path d="M 140 244 L 199 244 L 199 254.09375 L 140 254.09375 Z M 140 244 " clip-rule="nonzero"/></clipPath></defs><g clip-path="url(#6de54ec385)"><path fill="#2085b7" d="M 198.621094 249.527344 C 198.621094 249.679688 198.574219 249.828125 198.480469 249.976562 C 198.386719 250.125 198.246094 250.273438 198.058594 250.421875 C 197.871094 250.566406 197.640625 250.710938 197.359375 250.855469 C 197.082031 250.996094 196.757812 251.136719 196.390625 251.277344 C 196.023438 251.414062 195.613281 251.550781 195.164062 251.683594 C 194.710938 251.8125 194.21875 251.941406 193.683594 252.066406 C 193.152344 252.191406 192.578125 252.308594 191.972656 252.425781 C 191.363281 252.542969 190.71875 252.652344 190.039062 252.757812 C 189.359375 252.863281 188.652344 252.964844 187.910156 253.058594 C 187.167969 253.152344 186.398438 253.242188 185.597656 253.324219 C 184.800781 253.410156 183.980469 253.484375 183.132812 253.554688 C 182.285156 253.625 181.417969 253.691406 180.53125 253.746094 C 179.644531 253.804688 178.742188 253.855469 177.824219 253.898438 C 176.90625 253.941406 175.976562 253.980469 175.035156 254.007812 C 174.09375 254.035156 173.144531 254.058594 172.191406 254.074219 C 171.234375 254.089844 170.277344 254.09375 169.320312 254.09375 C 168.359375 254.09375 167.402344 254.089844 166.445312 254.074219 C 165.492188 254.058594 164.542969 254.035156 163.601562 254.007812 C 162.660156 253.980469 161.730469 253.941406 160.8125 253.898438 C 159.894531 253.855469 158.992188 253.804688 158.105469 253.746094 C 157.21875 253.691406 156.351562 253.625 155.503906 253.554688 C 154.660156 253.484375 153.835938 253.410156 153.039062 253.324219 C 152.242188 253.242188 151.46875 253.152344 150.730469 253.058594 C 149.988281 252.964844 149.277344 252.863281 148.597656 252.757812 C 147.917969 252.652344 147.277344 252.542969 146.667969 252.425781 C 146.058594 252.308594 145.488281 252.191406 144.953125 252.066406 C 144.421875 251.941406 143.925781 251.8125 143.476562 251.683594 C 143.023438 251.550781 142.613281 251.414062 142.246094 251.277344 C 141.878906 251.136719 141.554688 250.996094 141.277344 250.855469 C 141 250.710938 140.765625 250.566406 140.578125 250.421875 C 140.390625 250.273438 140.25 250.125 140.15625 249.976562 C 140.0625 249.828125 140.015625 249.679688 140.015625 249.527344 C 140.015625 249.378906 140.0625 249.230469 140.15625 249.082031 C 140.25 248.933594 140.390625 248.785156 140.578125 248.636719 C 140.765625 248.492188 141 248.347656 141.277344 248.203125 C 141.554688 248.058594 141.878906 247.917969 142.246094 247.78125 C 142.613281 247.644531 143.023438 247.507812 143.476562 247.375 C 143.925781 247.246094 144.421875 247.117188 144.953125 246.992188 C 145.488281 246.867188 146.058594 246.746094 146.667969 246.632812 C 147.277344 246.515625 147.917969 246.40625 148.597656 246.300781 C 149.277344 246.195312 149.988281 246.09375 150.730469 246 C 151.46875 245.902344 152.242188 245.816406 153.039062 245.730469 C 153.835938 245.648438 154.660156 245.574219 155.503906 245.5 C 156.351562 245.429688 157.21875 245.367188 158.105469 245.308594 C 158.992188 245.253906 159.894531 245.203125 160.8125 245.160156 C 161.730469 245.117188 162.660156 245.078125 163.601562 245.050781 C 164.542969 245.019531 165.492188 245 166.445312 244.984375 C 167.402344 244.96875 168.359375 244.960938 169.320312 244.960938 C 170.277344 244.960938 171.234375 244.96875 172.191406 244.984375 C 173.144531 245 174.09375 245.019531 175.035156 245.050781 C 175.976562 245.078125 176.90625 245.117188 177.824219 245.160156 C 178.742188 245.203125 179.644531 245.253906 180.53125 245.308594 C 181.417969 245.367188 182.285156 245.429688 183.132812 245.5 C 183.980469 245.574219 184.800781 245.648438 185.597656 245.730469 C 186.398438 245.816406 187.167969 245.902344 187.910156 246 C 188.652344 246.09375 189.359375 246.195312 190.039062 246.300781 C 190.71875 246.40625 191.363281 246.515625 191.972656 246.632812 C 192.578125 246.746094 193.152344 246.867188 193.683594 246.992188 C 194.21875 247.117188 194.710938 247.246094 195.164062 247.375 C 195.613281 247.507812 196.023438 247.644531 196.390625 247.78125 C 196.757812 247.917969 197.082031 248.058594 197.359375 248.203125 C 197.640625 248.347656 197.871094 248.492188 198.058594 248.636719 C 198.246094 248.785156 198.386719 248.933594 198.480469 249.082031 C 198.574219 249.230469 198.621094 249.378906 198.621094 249.527344 Z M 198.621094 249.527344 " fill-opacity="1" fill-rule="nonzero"/></g><path fill="#d5e9f2" d="M 191.675781 154.832031 C 184.0625 143.78125 165.542969 143.78125 165.542969 143.78125 C 165.542969 143.78125 147.023438 143.78125 139.410156 154.832031 C 132.421875 164.976562 132.488281 178.835938 132.488281 178.835938 L 139.238281 187.46875 L 191.851562 187.46875 L 198.597656 178.835938 C 198.597656 178.835938 198.667969 164.976562 191.675781 154.832031 Z M 191.675781 154.832031 " fill-opacity="1" fill-rule="nonzero"/><path fill="#a8d7e9" d="M 191.6875 154.832031 C 188.703125 150.503906 184.039062 147.867188 179.476562 146.265625 C 181.839844 147.730469 183.984375 149.59375 185.628906 151.984375 C 192.621094 162.128906 192.550781 175.984375 192.550781 175.984375 L 185.804688 184.617188 L 137.023438 184.617188 L 139.25 187.46875 L 191.859375 187.46875 L 198.609375 178.835938 C 198.609375 178.835938 198.675781 164.976562 191.6875 154.832031 Z M 191.6875 154.832031 " fill-opacity="1" fill-rule="nonzero"/><path fill="#002b43" d="M 182.332031 157.078125 C 175.234375 151.726562 155.851562 151.726562 148.757812 157.078125 C 141.054688 162.890625 141.316406 176.761719 141.316406 176.761719 L 189.777344 176.761719 C 189.777344 176.761719 190.035156 162.890625 182.332031 157.078125 Z M 182.332031 157.078125 " fill-opacity="1" fill-rule="nonzero"/><path fill="#000f16" d="M 141.515625 176.761719 C 141.992188 172.238281 143.566406 164.664062 148.757812 160.746094 C 155.851562 155.394531 175.234375 155.394531 182.332031 160.746094 C 187.523438 164.664062 189.097656 172.234375 189.570312 176.761719 L 189.777344 176.761719 C 189.777344 176.761719 190.039062 162.890625 182.335938 157.078125 C 175.242188 151.726562 155.855469 151.726562 148.761719 157.078125 C 141.054688 162.890625 141.316406 176.761719 141.316406 176.761719 Z M 141.515625 176.761719 " fill-opacity="1" fill-rule="nonzero"/><path fill="#d5e9f2" d="M 159.746094 141.191406 L 171.34375 141.191406 C 171.480469 141.191406 171.613281 141.21875 171.738281 141.269531 C 171.867188 141.324219 171.980469 141.398438 172.078125 141.496094 C 172.175781 141.59375 172.25 141.703125 172.300781 141.832031 C 172.355469 141.957031 172.378906 142.089844 172.378906 142.226562 L 172.378906 145.855469 C 172.378906 145.992188 172.355469 146.125 172.300781 146.25 C 172.25 146.378906 172.175781 146.492188 172.078125 146.585938 C 171.980469 146.683594 171.867188 146.757812 171.738281 146.8125 C 171.613281 146.863281 171.480469 146.890625 171.34375 146.890625 L 159.746094 146.890625 C 159.609375 146.890625 159.476562 146.863281 159.347656 146.8125 C 159.222656 146.757812 159.109375 146.683594 159.011719 146.585938 C 158.914062 146.492188 158.839844 146.378906 158.789062 146.25 C 158.734375 146.125 158.707031 145.992188 158.707031 145.855469 L 158.707031 142.226562 C 158.707031 142.089844 158.734375 141.957031 158.789062 141.832031 C 158.839844 141.703125 158.914062 141.59375 159.011719 141.496094 C 159.109375 141.398438 159.222656 141.324219 159.347656 141.269531 C 159.476562 141.21875 159.609375 141.191406 159.746094 141.191406 Z M 159.746094 141.191406 " fill-opacity="1" fill-rule="nonzero"/><path fill="#d5e9f2" d="M 162.457031 143.957031 L 164.015625 129.449219 L 166.09375 129.449219 L 168.632812 144.039062 Z M 162.457031 143.957031 " fill-opacity="1" fill-rule="nonzero"/><path fill="#d5e9f2" d="M 167.621094 129.449219 C 167.621094 129.78125 167.558594 130.101562 167.429688 130.40625 C 167.304688 130.710938 167.121094 130.980469 166.886719 131.214844 C 166.652344 131.449219 166.382812 131.632812 166.074219 131.757812 C 165.769531 131.882812 165.449219 131.949219 165.117188 131.949219 C 164.785156 131.949219 164.464844 131.882812 164.160156 131.757812 C 163.851562 131.632812 163.582031 131.449219 163.347656 131.214844 C 163.113281 130.980469 162.933594 130.710938 162.804688 130.40625 C 162.679688 130.101562 162.613281 129.78125 162.613281 129.449219 C 162.613281 129.121094 162.679688 128.800781 162.804688 128.496094 C 162.933594 128.1875 163.113281 127.917969 163.347656 127.683594 C 163.582031 127.449219 163.851562 127.269531 164.160156 127.144531 C 164.464844 127.015625 164.785156 126.953125 165.117188 126.953125 C 165.449219 126.953125 165.769531 127.015625 166.074219 127.144531 C 166.382812 127.269531 166.652344 127.449219 166.886719 127.683594 C 167.121094 127.917969 167.304688 128.1875 167.429688 128.496094 C 167.558594 128.800781 167.621094 129.121094 167.621094 129.449219 Z M 167.621094 129.449219 " fill-opacity="1" fill-rule="nonzero"/><path fill="#a8d7e9" d="M 166.675781 127.496094 C 166.804688 127.75 166.886719 128.019531 166.921875 128.304688 C 166.957031 128.585938 166.945312 128.867188 166.882812 129.148438 C 166.820312 129.425781 166.714844 129.6875 166.5625 129.929688 C 166.410156 130.171875 166.222656 130.382812 166 130.5625 C 165.777344 130.738281 165.53125 130.875 165.257812 130.96875 C 164.988281 131.0625 164.710938 131.109375 164.421875 131.109375 C 164.136719 131.105469 163.859375 131.054688 163.589844 130.960938 C 163.320312 130.863281 163.074219 130.722656 162.851562 130.542969 C 162.9375 130.710938 163.039062 130.863281 163.15625 131.007812 C 163.273438 131.152344 163.40625 131.28125 163.554688 131.394531 C 163.699219 131.511719 163.859375 131.609375 164.027344 131.6875 C 164.195312 131.765625 164.371094 131.824219 164.554688 131.867188 C 164.734375 131.90625 164.921875 131.925781 165.105469 131.925781 C 165.292969 131.921875 165.476562 131.902344 165.660156 131.859375 C 165.839844 131.816406 166.015625 131.753906 166.183594 131.675781 C 166.351562 131.59375 166.507812 131.496094 166.65625 131.378906 C 166.800781 131.261719 166.929688 131.132812 167.046875 130.984375 C 167.164062 130.839844 167.261719 130.683594 167.34375 130.515625 C 167.425781 130.347656 167.488281 130.175781 167.53125 129.992188 C 167.574219 129.8125 167.59375 129.628906 167.59375 129.441406 C 167.597656 129.253906 167.578125 129.070312 167.535156 128.890625 C 167.496094 128.707031 167.4375 128.53125 167.355469 128.363281 C 167.277344 128.195312 167.179688 128.039062 167.066406 127.890625 C 166.953125 127.746094 166.820312 127.613281 166.675781 127.496094 Z M 166.675781 127.496094 " fill-opacity="1" fill-rule="nonzero"/><path fill="#a8d7e9" d="M 139.238281 187.46875 L 191.851562 187.46875 L 198.597656 178.835938 L 132.488281 178.835938 Z M 139.238281 187.46875 " fill-opacity="1" fill-rule="nonzero"/><path fill="#a8d7e9" d="M 172.378906 144.160156 C 172.378906 144.523438 172.148438 144.824219 171.859375 144.824219 L 166.0625 144.824219 C 165.777344 144.824219 165.542969 144.53125 165.542969 144.160156 L 165.542969 141.851562 C 165.542969 141.488281 165.777344 141.1875 166.0625 141.1875 L 171.859375 141.1875 C 172.148438 141.1875 172.378906 141.480469 172.378906 141.851562 Z M 172.378906 144.160156 " fill-opacity="1" fill-rule="nonzero"/><path fill="#ffffff" d="M 155.1875 148.546875 C 154.351562 146.9375 150.527344 147.855469 149.28125 148.445312 C 148.265625 148.921875 146.421875 149.988281 145.246094 151.109375 C 144.304688 151.859375 143.472656 152.714844 142.757812 153.683594 C 142.15625 154.492188 141.019531 156.152344 141.753906 157.214844 C 142.554688 158.378906 143.90625 157.371094 144.578125 156.695312 C 146.324219 154.945312 147.667969 153.066406 150.035156 152 C 151.195312 151.480469 156.183594 150.445312 155.1875 148.546875 Z M 155.1875 148.546875 " fill-opacity="1" fill-rule="nonzero"/><path fill="#ffffff" d="M 164.109375 128.007812 C 162.929688 128.292969 163.382812 130.757812 164.835938 129.429688 C 165.992188 128.375 164.78125 127.710938 164.109375 128.007812 Z M 164.109375 128.007812 " fill-opacity="1" fill-rule="nonzero"/><path fill="#d5e9f2" d="M 201.40625 207.027344 L 191.121094 189.332031 L 139.964844 189.332031 L 129.683594 207.027344 C 129.683594 207.027344 130.121094 214.398438 132.601562 221.140625 C 136.414062 231.5 140.054688 235.644531 140.054688 235.644531 L 152.636719 240.492188 L 165.433594 241.667969 L 165.433594 241.691406 C 165.433594 241.691406 165.519531 241.679688 165.546875 241.679688 C 165.578125 241.679688 165.660156 241.691406 165.660156 241.691406 L 165.660156 241.667969 L 178.457031 240.496094 L 191.042969 235.644531 C 191.042969 235.644531 195.609375 229.773438 198.488281 221.140625 C 200.757812 214.328125 201.40625 207.027344 201.40625 207.027344 Z M 201.40625 207.027344 " fill-opacity="1" fill-rule="nonzero"/><path fill="#a8d7e9" d="M 191.121094 189.332031 L 179.007812 189.332031 L 189.292969 207.027344 C 189.292969 207.027344 188.644531 214.328125 186.371094 221.140625 C 183.492188 229.773438 182.199219 233.210938 178.921875 235.644531 C 176.21875 237.652344 166.339844 240.492188 166.339844 240.492188 L 159.488281 241.121094 L 165.429688 241.667969 L 165.429688 241.691406 C 165.429688 241.691406 165.515625 241.679688 165.542969 241.679688 C 165.574219 241.679688 165.65625 241.691406 165.65625 241.691406 L 165.65625 241.667969 L 178.453125 240.496094 L 191.039062 235.644531 C 191.039062 235.644531 195.605469 229.773438 198.484375 221.140625 C 200.757812 214.328125 201.40625 207.027344 201.40625 207.027344 Z M 191.121094 189.332031 " fill-opacity="1" fill-rule="nonzero"/><path fill="#a8d7e9" d="M 129.679688 207.027344 L 201.40625 207.027344 L 198.609375 212.332031 Z M 129.679688 207.027344 " fill-opacity="1" fill-rule="nonzero"/><path fill="#ffffff" d="M 144.078125 218.761719 C 143.875 216.191406 145.632812 212.652344 142.695312 211.296875 C 141.1875 210.601562 138.636719 210.316406 137.46875 211.8125 C 137.035156 212.394531 136.808594 213.046875 136.78125 213.773438 C 136.363281 215.605469 137.351562 218.285156 137.8125 219.925781 C 138.355469 221.859375 140.238281 228.652344 143.710938 226.804688 C 146.074219 225.542969 144.226562 220.660156 144.078125 218.761719 Z M 144.078125 218.761719 " fill-opacity="1" fill-rule="nonzero"/><path fill="#ffffff" d="M 147.851562 193.027344 C 146.292969 190.808594 144.097656 191.546875 142.535156 193.160156 C 139.058594 195.269531 135.363281 203.894531 140.625 204.738281 C 143.652344 205.226562 144.582031 201.542969 145.609375 199.550781 C 146.550781 197.726562 149.382812 195.207031 147.851562 193.027344 Z M 147.851562 193.027344 " fill-opacity="1" fill-rule="nonzero"/><path fill="#d5e9f2" d="M 194.105469 189.332031 C 194.105469 189.332031 216.605469 175.378906 220.929688 175.378906 C 225.257812 175.378906 223.527344 183.152344 216.605469 191.640625 C 209.886719 199.875 203.277344 204.78125 203.277344 204.78125 Z M 194.105469 189.332031 " fill-opacity="1" fill-rule="nonzero"/><path fill="#a8d7e9" d="M 220.929688 175.378906 C 220.5 175.378906 219.882812 175.519531 219.128906 175.773438 C 219.003906 178.808594 216.710938 183.761719 212.457031 188.984375 C 208.960938 193.261719 205.101562 197.179688 200.871094 200.734375 L 203.277344 204.785156 C 203.277344 204.785156 209.886719 199.875 216.605469 191.640625 C 223.527344 183.152344 225.257812 175.378906 220.929688 175.378906 Z M 220.929688 175.378906 " fill-opacity="1" fill-rule="nonzero"/><path fill="#ffffff" d="M 216.089844 178.628906 C 215.5 178.242188 213.78125 179.113281 213.292969 179.351562 C 212.476562 179.753906 210.371094 181.074219 209.929688 182.339844 C 209.441406 183.003906 209.355469 183.648438 210.164062 184.050781 C 211.382812 184.660156 214.785156 181.910156 215.519531 181.007812 C 215.972656 180.441406 216.902344 179.15625 216.089844 178.628906 Z M 216.089844 178.628906 " fill-opacity="1" fill-rule="nonzero"/><path fill="#d5e9f2" d="M 139.90625 237.171875 C 139.90625 237.171875 144.472656 249.058594 148.296875 249.449219 C 152.121094 249.835938 152.234375 241.691406 152.234375 241.691406 Z M 139.90625 237.171875 " fill-opacity="1" fill-rule="nonzero"/><path fill="#a8d7e9" d="M 149.15625 240.511719 C 149.113281 241.667969 148.761719 247.292969 146.070312 248.003906 C 146.859375 248.824219 147.660156 249.371094 148.429688 249.449219 C 152.253906 249.835938 152.367188 241.6875 152.367188 241.6875 Z M 149.15625 240.511719 " fill-opacity="1" fill-rule="nonzero"/><path fill="#d5e9f2" d="M 179.753906 241.691406 C 179.753906 241.691406 185.59375 250.644531 193.121094 248.773438 C 196.269531 247.992188 191.304688 237.171875 191.304688 237.171875 Z M 179.753906 241.691406 " fill-opacity="1" fill-rule="nonzero"/><path fill="#a8d7e9" d="M 191.304688 237.171875 L 188.171875 238.398438 C 189.433594 241.558594 191.429688 247.425781 189.140625 247.996094 C 188.542969 248.144531 187.9375 248.226562 187.324219 248.246094 C 189.066406 248.976562 191.027344 249.292969 193.121094 248.773438 C 196.269531 247.988281 191.304688 237.171875 191.304688 237.171875 Z M 191.304688 237.171875 " fill-opacity="1" fill-rule="nonzero"/><path fill="#3aedb1" d="M 172.390625 169.105469 C 172.277344 169.101562 172.183594 169.136719 172.101562 169.214844 C 172.019531 169.292969 171.976562 169.386719 171.976562 169.496094 C 171.976562 169.519531 171.902344 171.335938 170.742188 172.289062 C 169.640625 173.199219 167.636719 173.503906 166.664062 173.5 C 165.753906 173.539062 163.6875 173.199219 162.578125 172.289062 C 161.421875 171.335938 161.351562 169.519531 161.351562 169.496094 C 161.347656 169.386719 161.304688 169.292969 161.222656 169.214844 C 161.140625 169.136719 161.042969 169.101562 160.933594 169.105469 C 160.820312 169.109375 160.726562 169.148438 160.648438 169.230469 C 160.574219 169.3125 160.535156 169.410156 160.539062 169.519531 C 160.539062 169.609375 160.617188 171.722656 162.0625 172.914062 C 163.539062 174.128906 165.445312 174.3125 166.46875 174.3125 C 167.691406 174.3125 169.785156 174.128906 171.261719 172.914062 C 172.707031 171.722656 172.78125 169.609375 172.785156 169.519531 C 172.789062 169.410156 172.753906 169.3125 172.675781 169.230469 C 172.597656 169.148438 172.503906 169.105469 172.390625 169.105469 Z M 172.390625 169.105469 " fill-opacity="1" fill-rule="nonzero"/><path fill="#d5e9f2" d="M 128.605469 204.683594 C 128.605469 204.683594 120.929688 212.984375 117.320312 215.363281 C 114.582031 217.167969 112.523438 207.253906 122.023438 198.539062 C 131.316406 190.015625 138.875 188.675781 138.875 188.675781 Z M 128.605469 204.683594 " fill-opacity="1" fill-rule="nonzero"/><path fill="#a8d7e9" d="M 122.023438 198.539062 C 131.316406 190.015625 138.875 188.675781 138.875 188.675781 L 138.019531 190.007812 C 135.089844 191.46875 131.308594 193.835938 127.1875 197.617188 C 120.792969 203.472656 119.628906 209.871094 120.382812 212.886719 C 119.417969 213.785156 118.398438 214.609375 117.320312 215.363281 C 114.582031 217.167969 112.523438 207.253906 122.023438 198.539062 Z M 122.023438 198.539062 " fill-opacity="1" fill-rule="nonzero"/><path fill="#3aedb1" d="M 152.996094 163.765625 C 152.996094 164.082031 152.9375 164.386719 152.816406 164.679688 C 152.695312 164.972656 152.519531 165.230469 152.296875 165.457031 C 152.070312 165.679688 151.8125 165.851562 151.519531 165.972656 C 151.226562 166.09375 150.921875 166.15625 150.601562 166.15625 C 150.285156 166.15625 149.980469 166.097656 149.6875 165.976562 C 149.394531 165.851562 149.132812 165.679688 148.910156 165.457031 C 148.683594 165.234375 148.511719 164.976562 148.390625 164.683594 C 148.269531 164.390625 148.207031 164.085938 148.207031 163.769531 C 148.207031 163.449219 148.269531 163.144531 148.390625 162.851562 C 148.511719 162.5625 148.683594 162.300781 148.910156 162.078125 C 149.132812 161.855469 149.390625 161.679688 149.6875 161.558594 C 149.980469 161.4375 150.285156 161.378906 150.601562 161.378906 C 150.917969 161.378906 151.226562 161.4375 151.519531 161.558594 C 151.8125 161.679688 152.070312 161.851562 152.296875 162.078125 C 152.519531 162.300781 152.691406 162.558594 152.816406 162.851562 C 152.9375 163.144531 152.996094 163.449219 152.996094 163.765625 Z M 152.996094 163.765625 " fill-opacity="1" fill-rule="nonzero"/><path fill="#3aedb1" d="M 183.421875 163.765625 C 183.425781 164.082031 183.363281 164.386719 183.242188 164.679688 C 183.121094 164.972656 182.949219 165.230469 182.722656 165.457031 C 182.5 165.679688 182.238281 165.851562 181.945312 165.972656 C 181.652344 166.09375 181.347656 166.15625 181.03125 166.15625 C 180.710938 166.15625 180.40625 166.097656 180.113281 165.976562 C 179.820312 165.851562 179.5625 165.679688 179.335938 165.457031 C 179.113281 165.234375 178.9375 164.976562 178.816406 164.683594 C 178.695312 164.390625 178.636719 164.085938 178.632812 163.769531 C 178.632812 163.449219 178.695312 163.144531 178.816406 162.851562 C 178.9375 162.5625 179.113281 162.300781 179.335938 162.078125 C 179.558594 161.855469 179.820312 161.679688 180.113281 161.558594 C 180.40625 161.4375 180.710938 161.378906 181.027344 161.378906 C 181.347656 161.378906 181.652344 161.4375 181.945312 161.558594 C 182.238281 161.679688 182.496094 161.851562 182.722656 162.078125 C 182.945312 162.300781 183.121094 162.558594 183.242188 162.851562 C 183.363281 163.144531 183.421875 163.449219 183.421875 163.765625 Z M 183.421875 163.765625 " fill-opacity="1" fill-rule="nonzero"/><path fill="#2a56f4" d="M 261.65625 188.398438 C 262.476562 190.894531 261.179688 193.566406 258.757812 194.355469 L 222.621094 206.152344 C 220.199219 206.941406 217.574219 205.554688 216.753906 203.054688 L 195.796875 139.136719 C 194.976562 136.640625 196.273438 133.976562 198.691406 133.179688 L 234.828125 121.378906 C 237.25 120.589844 239.875 121.976562 240.695312 124.480469 Z M 261.65625 188.398438 " fill-opacity="1" fill-rule="nonzero"/><path fill="#0643f2" d="M 236.71875 121.1875 C 237.445312 121.789062 237.957031 122.539062 238.25 123.4375 L 259.207031 187.355469 C 260.027344 189.851562 258.730469 192.523438 256.3125 193.3125 L 220.171875 205.109375 C 219.558594 205.3125 218.929688 205.375 218.289062 205.300781 C 218.890625 205.808594 219.574219 206.132812 220.347656 206.285156 C 221.117188 206.4375 221.878906 206.394531 222.625 206.152344 L 258.765625 194.355469 C 261.183594 193.566406 262.480469 190.898438 261.660156 188.398438 L 240.699219 124.488281 C 240.558594 124.050781 240.363281 123.644531 240.105469 123.261719 C 239.851562 122.882812 239.546875 122.546875 239.195312 122.253906 C 238.839844 121.960938 238.453125 121.722656 238.03125 121.542969 C 237.609375 121.359375 237.171875 121.242188 236.71875 121.1875 Z M 236.71875 121.1875 " fill-opacity="1" fill-rule="nonzero"/><path fill="#002b43" d="M 257.660156 186.65625 C 258.421875 188.972656 257.347656 191.40625 255.261719 192.085938 L 224.097656 202.253906 C 222.011719 202.9375 219.703125 201.609375 218.945312 199.292969 L 199.53125 140.085938 C 198.773438 137.769531 199.847656 135.339844 201.933594 134.65625 L 233.097656 124.488281 C 235.183594 123.808594 237.488281 125.132812 238.25 127.449219 Z M 257.660156 186.65625 " fill-opacity="1" fill-rule="nonzero"/><path fill="#3aedb1" d="M 204.746094 139.722656 L 225.835938 132.839844 L 227.363281 137.488281 L 206.269531 144.371094 Z M 204.746094 139.722656 " fill-opacity="1" fill-rule="nonzero"/><path fill="#3aedb1" d="M 222.644531 158.714844 L 243.738281 151.832031 L 245.261719 156.480469 L 224.167969 163.363281 Z M 222.644531 158.714844 " fill-opacity="1" fill-rule="nonzero"/><path fill="#3aedb1" d="M 231.375 163.121094 L 245.886719 158.386719 L 247.410156 163.035156 L 232.898438 167.769531 Z M 231.375 163.121094 " fill-opacity="1" fill-rule="nonzero"/><path fill="#3aedb1" d="M 220.148438 186.664062 L 234.660156 181.929688 L 236.183594 186.578125 L 221.671875 191.316406 Z M 220.148438 186.664062 " fill-opacity="1" fill-rule="nonzero"/><path fill="#3aedb1" d="M 222.285156 193.183594 L 236.796875 188.445312 L 238.320312 193.097656 L 223.808594 197.832031 Z M 222.285156 193.183594 " fill-opacity="1" fill-rule="nonzero"/><path fill="#3aedb1" d="M 219.003906 175.191406 L 248.265625 165.644531 L 249.789062 170.292969 L 220.527344 179.839844 Z M 219.003906 175.191406 " fill-opacity="1" fill-rule="nonzero"/><path fill="#3aedb1" d="M 207.410156 147.855469 L 221.949219 143.109375 L 223.402344 147.539062 L 208.859375 152.285156 Z M 207.410156 147.855469 " fill-opacity="1" fill-rule="nonzero"/><path fill="#ffffff" d="M 202.28125 148.46875 L 216.453125 129.917969 L 222 128.089844 L 205.542969 158.417969 Z M 202.28125 148.46875 " fill-opacity="0.2" fill-rule="nonzero"/><path fill="#ffffff" d="M 209.785156 171.359375 L 213.152344 181.628906 L 239.699219 131.878906 L 238.25 127.449219 Z M 209.785156 171.359375 " fill-opacity="0.2" fill-rule="nonzero"/><path fill="#ffffff" d="M 231.164062 199.949219 L 249.941406 163.117188 L 251.527344 167.953125 L 244.167969 195.703125 Z M 231.164062 199.949219 " fill-opacity="0.2" fill-rule="nonzero"/><path fill="#ffffff" d="M 214.109375 184.546875 L 240.453125 134.171875 L 241.777344 138.207031 L 215.917969 190.066406 Z M 214.109375 184.546875 " fill-opacity="0.2" fill-rule="nonzero"/></svg>